<svg width="120" height="23" viewBox="0 0 98 14" fill="none" xmlns="http://www.w3.org/2000/svg">
<path d="M0.0321796 11H1.56761V6.13695C1.56761 5.07395 2.31222 4.33448 3.18521 4.33448C4.03765 4.33448 4.6282 4.89936 4.6282 5.75694V11H6.1585V5.97262C6.1585 5.0226 6.73878 4.33448 7.74015 4.33448C8.55151 4.33448 9.21909 4.78638 9.21909 5.85451V11H10.7545V5.71072C10.7545 3.90826 9.74802 3.0096 8.32043 3.0096C7.18554 3.0096 6.3331 3.55393 5.95309 4.3961H5.87093C5.52687 3.53339 4.8028 3.0096 3.75008 3.0096C2.70763 3.0096 1.93221 3.52825 1.60356 4.3961H1.50599V3.1123H0.0321796V11ZM12.416 13.9579C13.6844 13.9579 14.4855 13.2954 14.9426 12.0527L18.2034 3.1277L16.5447 3.1123L14.5471 9.23348H14.465L12.4674 3.1123H10.8241L13.7101 11.1027L13.5201 11.6265C13.1298 12.6741 12.5804 12.7614 11.7382 12.5303L11.3684 13.7884C11.5533 13.8706 11.9539 13.9579 12.416 13.9579ZM24.9901 3.1123H23.3725V1.22254H21.8371V3.1123H20.6817V4.34475H21.8371V9.0024C21.832 10.4351 22.9258 11.1284 24.1377 11.1027C24.6255 11.0976 24.9542 11.0051 25.1339 10.9384L24.8566 9.66998C24.7539 9.69052 24.5639 9.73674 24.3174 9.73674C23.8193 9.73674 23.3725 9.57241 23.3725 8.68402V4.34475H24.9901V3.1123ZM25.604 11H27.1395V6.18316C27.1395 5.15098 27.9354 4.40638 29.0241 4.40638C29.3425 4.40638 29.7019 4.46286 29.8252 4.49881V3.03014C29.6711 3.0096 29.3682 2.99419 29.173 2.99419C28.2487 2.99419 27.4579 3.51798 27.1703 4.36529H27.0881V3.1123H25.604V11ZM32.2942 11.1746C33.5986 11.1746 34.3329 10.5122 34.6256 9.9216H34.6872V11H36.1867V5.76207C36.1867 3.46663 34.3791 3.0096 33.1261 3.0096C31.6985 3.0096 30.3839 3.58474 29.8704 5.0226L31.3134 5.35126C31.5393 4.79152 32.1145 4.25232 33.1467 4.25232C34.1378 4.25232 34.6461 4.77098 34.6461 5.6645V5.70045C34.6461 6.26019 34.071 6.24992 32.6537 6.41425C31.1593 6.58884 29.629 6.97912 29.629 8.77131C29.629 10.3222 30.7947 11.1746 32.2942 11.1746ZM32.628 9.94214C31.7601 9.94214 31.1336 9.55187 31.1336 8.79185C31.1336 7.97022 31.8629 7.67751 32.7512 7.5594C33.2494 7.49264 34.4305 7.35913 34.6513 7.13831V8.15509C34.6513 9.0897 33.9067 9.94214 32.628 9.94214ZM43.6125 3.1123H41.9641L39.9716 9.18213H39.8895L37.8919 3.1123H36.2435L39.1089 11H40.7522L43.6125 3.1123ZM47.088 11.1592C48.8083 11.1592 50.0254 10.3119 50.3746 9.02807L48.9213 8.76618C48.644 9.51079 47.9764 9.89079 47.1034 9.89079C45.7888 9.89079 44.9055 9.03835 44.8645 7.51832H50.4721V6.97399C50.4721 4.12394 48.7672 3.0096 46.9802 3.0096C44.7823 3.0096 43.3342 4.68368 43.3342 7.1075C43.3342 9.557 44.7618 11.1592 47.088 11.1592ZM44.8696 6.36803C44.9312 5.24855 45.7426 4.27799 46.9904 4.27799C48.1818 4.27799 48.9624 5.16125 48.9675 6.36803H44.8696ZM52.6266 0.483066H51.0912V11H52.6266V0.483066ZM56.3502 3.1123V11.5033C56.3502 12.2325 56.0472 12.633 55.318 12.633H55.0715V13.9528C55.1793 13.9579 55.2769 13.9579 55.3847 13.9579C57.0177 13.9579 57.8856 13.0952 57.8856 11.5135V3.1123H56.3502ZM57.1102 1.89525C57.6391 1.89525 58.0807 1.48443 58.0807 0.981182C58.0807 0.477931 57.6391 0.0619778 57.1102 0.0619778C56.5761 0.0619778 56.1396 0.477931 56.1396 0.981182C56.1396 1.48443 56.5761 1.89525 57.1102 1.89525ZM62.1892 11.1592C64.4127 11.1592 65.866 9.53133 65.866 7.0921C65.866 4.63746 64.4127 3.0096 62.1892 3.0096C59.9656 3.0096 58.5123 4.63746 58.5123 7.0921C58.5123 9.53133 59.9656 11.1592 62.1892 11.1592ZM62.1943 9.87025C60.741 9.87025 60.0632 8.60185 60.0632 7.08696C60.0632 5.57721 60.741 4.2934 62.1943 4.2934C63.6373 4.2934 64.3151 5.57721 64.3151 7.08696C64.3151 8.60185 63.6373 9.87025 62.1943 9.87025ZM71.4919 7.72886C71.497 9.06916 70.5008 9.70592 69.6381 9.70592C68.688 9.70592 68.0307 9.0178 68.0307 7.94454V3.1123H66.4953V8.12941C66.4953 10.0859 67.5686 11.1027 69.0835 11.1027C70.2697 11.1027 71.0759 10.4762 71.4405 9.63403H71.5227V11H73.0324V3.1123H71.4919V7.72886ZM74.011 11H75.5464V6.18316C75.5464 5.15098 76.3423 4.40638 77.431 4.40638C77.7494 4.40638 78.1089 4.46286 78.2321 4.49881V3.03014C78.0781 3.0096 77.7751 2.99419 77.5799 2.99419C76.6556 2.99419 75.8648 3.51798 75.5772 4.36529H75.495V3.1123H74.011V11ZM80.0117 6.31668C80.0117 5.05855 80.782 4.33962 81.8501 4.33962C82.8926 4.33962 83.5242 5.0226 83.5242 6.16776V11H85.0596V5.98289C85.0596 4.0315 83.9864 3.0096 82.3739 3.0096C81.1877 3.0096 80.4123 3.55906 80.0477 4.3961H79.9501V3.1123H78.4763V11H80.0117V6.31668ZM88.3297 11.1746C89.6341 11.1746 90.3684 10.5122 90.6611 9.9216H90.7228V11H92.2222V5.76207C92.2222 3.46663 90.4146 3.0096 89.1617 3.0096C87.7341 3.0096 86.4194 3.58474 85.9059 5.0226L87.3489 5.35126C87.5749 4.79152 88.15 4.25232 89.1822 4.25232C90.1733 4.25232 90.6817 4.77098 90.6817 5.6645V5.70045C90.6817 6.26019 90.1065 6.24992 88.6892 6.41425C87.1949 6.58884 85.6646 6.97912 85.6646 8.77131C85.6646 10.3222 86.8303 11.1746 88.3297 11.1746ZM88.6635 9.94214C87.7957 9.94214 87.1692 9.55187 87.1692 8.79185C87.1692 7.97022 87.8984 7.67751 88.7868 7.5594C89.2849 7.49264 90.466 7.35913 90.6868 7.13831V8.15509C90.6868 9.0897 89.9422 9.94214 88.6635 9.94214ZM94.7182 0.483066H93.1828V11H94.7182V0.483066ZM96.7109 11.0976C97.2707 11.0976 97.738 10.6405 97.738 10.0705C97.738 9.51079 97.2707 9.04862 96.7109 9.04862C96.1461 9.04862 95.6839 9.51079 95.6839 10.0705C95.6839 10.6405 96.1461 11.0976 96.7109 11.0976Z" fill="white"/>
</svg>
