<?xml version="1.0" standalone="no"?>
<!DOCTYPE svg PUBLIC "-//W3C//DTD SVG 20010904//EN"
 "http://www.w3.org/TR/2001/REC-SVG-20010904/DTD/svg10.dtd">
<svg version="1.0" xmlns="http://www.w3.org/2000/svg"
 width="352.000000pt" height="470.000000pt" viewBox="0 0 352.000000 470.000000"
 preserveAspectRatio="xMidYMid meet">
<metadata>
Created by potrace 1.16, written by Peter Selinger 2001-2019
</metadata>
<g transform="translate(0.000000,470.000000) scale(0.100000,-0.100000)"
fill="#000000" stroke="none">
<path d="M1843 4159 c-23 -4 -53 -15 -67 -24 -47 -31 -78 -141 -56 -196 10
-24 18 -29 46 -29 26 0 34 -4 34 -17 0 -10 7 -31 15 -47 19 -36 20 -33 -10
-38 -23 -5 -30 2 -26 25 1 4 -11 7 -26 7 -16 0 -41 2 -58 5 -40 7 -64 -7 -46
-29 11 -13 11 -16 -2 -16 -9 0 -28 5 -44 12 -15 6 -35 10 -45 9 -9 -1 -19 3
-23 8 -4 7 -12 7 -25 -1 -16 -10 -29 -8 -75 15 -30 15 -55 33 -55 40 0 8 -8
21 -19 31 -16 14 -20 15 -30 2 -11 -13 -18 -12 -59 2 -26 9 -55 27 -66 40 -10
13 -25 21 -32 18 -8 -3 -24 -1 -37 4 -96 40 -273 100 -284 95 -9 -3 -13 -16
-11 -35 3 -29 8 -32 115 -69 143 -50 147 -52 131 -74 -12 -15 -16 -16 -42 -2
-34 18 -133 20 -138 4 -3 -9 -9 -9 -25 0 -12 6 -40 11 -62 11 -23 0 -41 5 -41
10 0 19 -23 10 -89 -38 -98 -71 -214 -121 -281 -123 -95 -2 -208 16 -265 42
-22 10 -62 19 -90 21 l-50 3 -3 -803 c-1 -441 1 -801 5 -801 21 3 33 -2 27
-12 -4 -7 2 -9 17 -7 16 2 24 9 23 21 -1 9 4 17 12 17 19 0 54 32 54 49 0 11
5 8 16 -7 16 -23 44 -30 44 -11 0 5 -5 7 -12 3 -6 -4 -8 -3 -4 4 3 6 27 10 51
9 32 -1 44 2 41 10 -3 7 1 10 10 6 21 -8 17 -32 -5 -28 -24 4 -121 -51 -121
-70 0 -8 14 -17 35 -21 19 -3 32 -10 29 -15 -3 -5 0 -9 5 -9 6 0 11 -5 11 -10
0 -7 -6 -7 -19 -1 -13 7 -24 6 -37 -4 -19 -13 -19 -13 0 -12 10 1 21 -3 23 -9
2 -6 -6 -10 -19 -10 -15 1 -24 -6 -28 -23 l-5 -24 -12 27 c-11 22 -10 26 2 26
9 0 12 6 8 16 -3 8 -12 13 -19 10 -17 -7 -18 6 -2 22 9 9 5 12 -21 12 -25 0
-32 -4 -28 -15 4 -8 1 -17 -5 -21 -6 -4 -9 -3 -6 2 3 5 1 14 -6 20 -9 8 -15 5
-23 -13 -9 -19 -9 -24 0 -20 7 3 13 -3 13 -14 0 -18 -1 -18 -21 1 -12 11 -24
20 -28 20 -4 0 -7 -481 -7 -1070 l0 -1070 1534 0 c1218 0 1535 3 1539 13 4 9
6 9 6 0 1 -10 52 -13 221 -13 l220 0 0 1075 0 1076 -22 8 -23 8 23 7 c21 7 22
12 22 123 0 96 -2 114 -14 104 -17 -14 -76 -3 -76 14 0 7 9 15 20 18 11 3 18
2 15 -3 -3 -4 3 -10 14 -13 38 -10 41 18 41 404 0 326 -2 370 -15 365 -8 -3
-15 -1 -15 4 0 6 7 10 15 10 12 0 15 15 15 79 l0 80 -32 -10 c-18 -5 -52 -9
-75 -9 -23 0 -70 -8 -105 -17 -40 -10 -108 -17 -188 -18 -69 -1 -141 -5 -160
-9 -23 -5 -30 -4 -21 2 8 6 9 12 3 16 -14 9 -43 -4 -36 -16 3 -5 -2 -8 -12 -7
-11 2 -23 1 -29 -3 -5 -3 -38 -9 -72 -12 -58 -6 -75 -9 -113 -23 -17 -7 -28
-9 -84 -18 -36 -5 -38 -4 -33 17 6 21 -3 47 -16 51 -8 3 -57 -53 -57 -65 0 -6
-8 -17 -17 -24 -17 -13 -17 -13 0 -14 9 0 17 -4 17 -8 0 -6 -17 -7 -64 -3 -4
1 -5 8 -2 17 3 8 2 13 -3 9 -5 -3 -11 1 -14 7 -2 7 -8 1 -12 -14 -7 -29 -20
-37 -27 -17 -3 9 -11 8 -28 -1 -14 -7 -43 -12 -65 -12 -22 1 -53 -5 -69 -13
-24 -13 -35 -13 -62 -3 -25 9 -42 9 -69 1 -31 -10 -36 -9 -31 3 7 19 -18 18
-37 -1 -12 -11 -17 -12 -20 -2 -3 6 -6 -5 -6 -26 l-1 -38 -57 6 c-98 11 -108
20 -70 63 16 17 15 21 -15 62 -18 24 -28 41 -22 37 7 -4 14 1 17 13 3 10 1 20
-5 22 -5 2 7 86 29 195 l38 191 30 7 c17 3 48 6 69 5 34 -1 37 1 26 15 -7 8
-20 16 -29 17 -9 1 25 4 74 7 87 6 90 7 90 30 0 25 -1 25 -140 30 l-30 1 27
26 c24 24 28 25 60 14 47 -17 82 -7 110 33 19 27 23 44 23 109 -1 98 -11 109
-129 147 -104 32 -173 41 -233 30z m-760 -299 c38 -11 74 -17 81 -14 7 3 44
-10 82 -27 47 -22 87 -33 128 -35 32 -1 60 -5 63 -8 3 -2 -5 -18 -17 -34 -14
-18 -24 -49 -26 -78 l-4 -49 13 50 c18 67 43 104 67 98 14 -4 17 -12 14 -36
-2 -18 -5 -73 -7 -124 -1 -50 -6 -95 -10 -100 -9 -8 -37 23 -62 72 -16 30 -16
30 -11 3 5 -20 2 -28 -11 -32 -10 -2 -28 -7 -40 -11 -19 -5 -22 -3 -16 11 4
11 3 15 -5 10 -7 -4 -6 4 3 20 14 27 10 58 -6 48 -5 -3 -9 -2 -8 3 4 23 -4 34
-38 52 -25 12 -45 16 -59 11 -25 -10 -98 3 -119 20 -26 21 -17 31 15 15 33
-17 40 -18 40 -7 0 5 -20 19 -45 32 -24 13 -53 32 -62 43 -18 20 -18 20 10 2
15 -9 27 -15 27 -11 0 7 -107 76 -119 76 -5 0 -11 6 -14 14 -7 18 34 13 136
-14z m719 -178 c-60 -287 -82 -394 -82 -400 -1 -17 -20 25 -20 44 0 11 -9 30
-20 42 -18 19 -20 30 -14 73 4 33 11 49 19 45 8 -3 10 4 7 21 -3 16 -1 24 5
20 14 -9 4 82 -13 115 -19 37 -18 46 9 51 46 10 112 3 109 -11z m-1134 -812
c14 0 14 -2 3 -9 -11 -7 -10 -12 7 -27 12 -10 19 -21 16 -26 -3 -4 -1 -8 4 -8
14 0 22 -40 9 -41 -7 0 -2 -4 11 -9 19 -8 21 -13 13 -29 -6 -10 -8 -20 -6 -23
11 -10 -59 -7 -72 4 -11 9 -16 9 -22 -1 -8 -12 -14 7 -25 74 -2 11 -6 27 -10
36 -4 8 -2 28 3 42 8 20 7 27 -2 27 -9 0 -9 2 1 8 7 5 10 17 6 28 -4 11 5 6
21 -13 14 -18 34 -33 43 -33z m1669 -35 c0 -9 -10 -15 -26 -16 l-26 -1 25 -7
c33 -8 88 -38 113 -62 11 -10 24 -16 28 -14 4 3 10 -3 14 -14 3 -11 21 -31 41
-46 19 -14 33 -34 32 -42 -2 -11 8 -19 30 -25 18 -5 35 -15 38 -22 3 -8 26
-17 52 -20 61 -9 142 -35 142 -46 0 -5 9 -17 20 -28 19 -18 19 -18 -10 -36
-17 -9 -30 -13 -30 -8 0 5 -11 12 -24 14 -19 4 -23 1 -19 -16 4 -20 4 -20 -8
-2 -11 18 -13 18 -25 2 -12 -17 -13 -16 -24 3 -6 12 -8 21 -4 21 3 0 1 7 -7
16 -10 12 -29 15 -85 12 -40 -1 -76 1 -80 5 -11 11 -46 8 -39 -3 12 -20 -17
-9 -41 15 -14 14 -26 25 -28 25 -1 0 -4 -13 -5 -30 -4 -62 -6 -70 -19 -70 -8
0 -11 7 -8 18 4 10 0 27 -8 37 -10 14 -11 24 -5 32 7 8 4 18 -10 32 -23 23
-51 28 -51 9 0 -9 -3 -8 -10 2 -6 10 -4 20 7 32 15 17 15 19 -3 33 -17 13 -17
14 -1 15 21 0 23 18 2 26 -8 4 -15 10 -15 15 0 6 8 5 19 -1 32 -16 48 -12 21
6 -14 10 -31 24 -38 33 -12 14 -13 14 -10 -5 2 -11 -3 -29 -11 -38 -13 -15
-13 -19 0 -27 8 -5 10 -9 4 -9 -12 1 -55 35 -55 45 0 3 4 4 9 1 5 -3 14 1 21
9 10 12 9 16 -1 19 -8 2 -23 7 -34 12 -11 4 -23 6 -27 6 -5 -1 -8 7 -8 18 0
12 -7 20 -17 21 -13 0 -11 3 7 10 20 8 22 12 10 20 -12 9 -12 10 3 5 11 -3 24
-3 30 1 7 5 39 13 72 19 33 6 63 12 66 13 3 0 6 -6 6 -14z"/>
</g>
</svg>
